<?xml version="1.0" encoding="UTF-8" standalone="no"?>
<!-- Created with Inkscape (http://www.inkscape.org/) -->

<svg
   xmlns:dc="http://purl.org/dc/elements/1.1/"
   xmlns:cc="http://creativecommons.org/ns#"
   xmlns:rdf="http://www.w3.org/1999/02/22-rdf-syntax-ns#"
   xmlns:svg="http://www.w3.org/2000/svg"
   xmlns="http://www.w3.org/2000/svg"
   xmlns:sodipodi="http://sodipodi.sourceforge.net/DTD/sodipodi-0.dtd"
   xmlns:inkscape="http://www.inkscape.org/namespaces/inkscape"
   width="718.10675mm"
   height="210.612mm"
   viewBox="0 0 718.10675 210.61199"
   version="1.1"
   id="svg8"
   inkscape:version="0.92.4 (5da689c313, 2019-01-14)"
   sodipodi:docname="logotype.svg"
   inkscape:export-filename="/home/montanari/bionce-logo.png"
   inkscape:export-xdpi="95.998329"
   inkscape:export-ydpi="95.998329">
  <defs
     id="defs2">
    <inkscape:perspective
       sodipodi:type="inkscape:persp3d"
       inkscape:vp_x="0 : 105 : 1"
       inkscape:vp_y="0 : 1000 : 0"
       inkscape:vp_z="297.00001 : 105 : 1"
       inkscape:persp3d-origin="148.49999 : 70 : 1"
       id="perspective902" />
  </defs>
  <sodipodi:namedview
     id="base"
     pagecolor="#ffffff"
     bordercolor="#666666"
     borderopacity="1.0"
     inkscape:pageopacity="0.0"
     inkscape:pageshadow="2"
     inkscape:zoom="0.30345316"
     inkscape:cx="1795.9938"
     inkscape:cy="398.00693"
     inkscape:document-units="mm"
     inkscape:current-layer="layer1"
     showgrid="false"
     inkscape:window-width="1920"
     inkscape:window-height="1017"
     inkscape:window-x="-8"
     inkscape:window-y="-8"
     inkscape:window-maximized="1"
     showguides="true"
     inkscape:guide-bbox="true"
     fit-margin-top="0"
     fit-margin-left="0"
     fit-margin-right="0"
     fit-margin-bottom="0" />
  <metadata
     id="metadata5">
    <rdf:RDF>
      <cc:Work
         rdf:about="">
        <dc:format>image/svg+xml</dc:format>
        <dc:type
           rdf:resource="http://purl.org/dc/dcmitype/StillImage" />
        <dc:title></dc:title>
      </cc:Work>
    </rdf:RDF>
  </metadata>
  <g
     inkscape:label="Camada 1"
     inkscape:groupmode="layer"
     id="layer1"
     transform="translate(-4.979468e-7,-86.388004)">
    <g
       aria-label="BioNCE"
       style="font-style:normal;font-weight:normal;font-size:180.69363403px;line-height:1.25;font-family:sans-serif;text-align:center;letter-spacing:0px;word-spacing:0px;text-anchor:middle;fill:#163558;fill-opacity:1;stroke:none;stroke-width:4.51734066"
       id="text1219-1"
       transform="translate(-232.27334)">
      <path
         d="m 354.15806,157.12179 c 0,-13.58195 -11.1125,-24.51806 -24.51806,-24.51806 h -97.36666 v 127 h 102.30555 c 13.58195,0 24.69445,-10.93611 24.69445,-24.51806 V 207.7454 c 0,-6.35 -2.82223,-12.52361 -6.87917,-16.75695 1.23472,-2.64583 1.76389,-5.64444 1.76389,-8.99583 z M 329.64,155.88706 c 0.52917,0 1.05834,0.52917 1.05834,1.23473 v 24.87083 c 0,0.70556 -0.52917,1.23472 -1.05834,1.23472 h -72.84861 c -0.70555,0 -1.23472,-0.52916 -1.23472,-1.23472 v -24.87083 c 0,-0.70556 0.52917,-1.23473 1.23472,-1.23473 z m 6.17361,79.19861 c 0,0.70556 -0.52916,1.23473 -1.23472,1.23473 h -77.7875 c -0.70555,0 -1.23472,-0.52917 -1.23472,-1.23473 V 207.7454 c 0,-0.70556 0.52917,-1.05834 1.23472,-1.05834 h 77.7875 c 0.70556,0 1.23472,0.35278 1.23472,1.05834 z"
         style="font-style:normal;font-variant:normal;font-weight:bold;font-stretch:normal;font-size:176.3888855px;font-family:Orbitron;-inkscape-font-specification:'Orbitron Bold';text-align:center;text-anchor:middle;fill:#163558;fill-opacity:1;stroke-width:4.51734066"
         id="path911"
         inkscape:connector-curvature="0" />
      <g
         aria-label="i"
         style="font-style:normal;font-weight:normal;font-size:180.69363403px;line-height:1.25;font-family:sans-serif;text-align:center;letter-spacing:0px;word-spacing:0px;text-anchor:middle;fill:#163558;fill-opacity:1;stroke:none;stroke-width:4.51734066"
         id="text1219-1-3"
         transform="translate(-0.11094,26.84703)">
        <path
           d="m 377.91062,96.93726 v 23.28333 h 23.10695 V 96.93726 Z"
           style="font-style:normal;font-variant:normal;font-weight:bold;font-stretch:normal;font-size:176.38890076px;font-family:Orbitron;-inkscape-font-specification:'Orbitron Bold';text-align:center;text-anchor:middle;fill:#f5a932;fill-opacity:1;stroke-width:4.51734066"
           id="path902"
           inkscape:connector-curvature="0"
           sodipodi:nodetypes="ccccc" />
      </g>
      <path
         d="m 442.96158,157.29818 c -13.40555,0 -24.34166,10.93611 -24.34166,24.34166 v 53.62222 c 0,13.40556 10.93611,24.34167 24.34166,24.34167 h 55.20973 c 13.40555,0 24.34166,-10.93611 24.34166,-24.34167 v -53.62222 c 0,-13.40555 -10.93611,-24.34166 -24.34166,-24.34166 z m 55.20973,23.10694 c 0.70555,0 1.23472,0.52917 1.23472,1.23472 v 53.62222 c 0,0.70556 -0.52917,1.23473 -1.23472,1.23473 h -55.20973 c -0.70555,0 -1.23472,-0.52917 -1.23472,-1.23473 v -53.62222 c 0,-0.70555 0.52917,-1.23472 1.23472,-1.23472 z"
         style="font-style:normal;font-variant:normal;font-weight:bold;font-stretch:normal;font-size:176.3888855px;font-family:Orbitron;-inkscape-font-specification:'Orbitron Bold';text-align:center;text-anchor:middle;fill:#163558;fill-opacity:1;stroke-width:4.51734066"
         id="path915"
         inkscape:connector-curvature="0" />
      <path
         d="m 644.99853,225.73706 -78.14028,-93.13333 h -25.4 v 127 h 23.28334 V 166.4704 l 78.31666,93.13333 h 25.4 v -127 h -23.45972 z"
         style="font-style:normal;font-variant:normal;font-weight:bold;font-stretch:normal;font-size:176.3888855px;font-family:Orbitron;-inkscape-font-specification:'Orbitron Bold';text-align:center;text-anchor:middle;fill:#163558;fill-opacity:1;stroke-width:4.51734066"
         id="path917"
         inkscape:connector-curvature="0" />
      <path
         d="M 814.86652,155.88706 V 132.60373 H 712.73736 c -13.58195,0 -24.51806,10.93611 -24.51806,24.51806 v 77.96388 c 0,13.58195 10.93611,24.51806 24.51806,24.51806 H 814.86652 V 236.3204 H 712.73736 c -0.70556,0 -1.23473,-0.52917 -1.23473,-1.23473 v -77.96388 c 0,-0.70556 0.52917,-1.23473 1.23473,-1.23473 z"
         style="font-style:normal;font-variant:normal;font-weight:bold;font-stretch:normal;font-size:176.3888855px;font-family:Orbitron;-inkscape-font-specification:'Orbitron Bold';text-align:center;text-anchor:middle;fill:#163558;fill-opacity:1;stroke-width:4.51734066"
         id="path919"
         inkscape:connector-curvature="0" />
      <path
         d="M 950.38006,132.60373 H 833.61062 v 127 H 950.38006 V 236.3204 h -93.30972 v -28.575 h 75.14167 v -23.28334 h -75.14167 v -28.575 h 93.30972 z"
         style="font-style:normal;font-variant:normal;font-weight:bold;font-stretch:normal;font-size:176.3888855px;font-family:Orbitron;-inkscape-font-specification:'Orbitron Bold';text-align:center;text-anchor:middle;fill:#163558;fill-opacity:1;stroke-width:4.51734066"
         id="path921"
         inkscape:connector-curvature="0" />
      <path
         inkscape:connector-curvature="0"
         d="m 377.79968,259.60373 h 23.10694 V 157.29817 h -23.10694 z"
         style="font-style:normal;font-variant:normal;font-weight:bold;font-stretch:normal;font-size:176.3888855px;line-height:1.25;font-family:Orbitron;-inkscape-font-specification:'Orbitron Bold';text-align:center;letter-spacing:0px;word-spacing:0px;text-anchor:middle;fill:#163558;fill-opacity:1;stroke:none;stroke-width:4.51734066"
         id="path913-7"
         sodipodi:nodetypes="ccccc" />
    </g>
  </g>
</svg>
